<?xml version="1.0" encoding="UTF-8" standalone="no"?>
<svg
   xmlns:dc="http://purl.org/dc/elements/1.1/"
   xmlns:cc="http://creativecommons.org/ns#"
   xmlns:rdf="http://www.w3.org/1999/02/22-rdf-syntax-ns#"
   xmlns:svg="http://www.w3.org/2000/svg"
   xmlns="http://www.w3.org/2000/svg"
   viewBox="0 0 434.32001 285.38666"
   height="285.38666"
   width="434.32001"
   xml:space="preserve"
   id="svg2"
   version="1.1"><metadata
     id="metadata8"><rdf:RDF><cc:Work
         rdf:about=""><dc:format>image/svg+xml</dc:format><dc:type
           rdf:resource="http://purl.org/dc/dcmitype/StillImage" /></cc:Work></rdf:RDF></metadata><defs
     id="defs6" /><g
     transform="matrix(1.3333333,0,0,-1.3333333,0,285.38667)"
     id="g10"><g
       transform="scale(0.1)"
       id="g12"><path
         id="path14"
         style="fill:#231f20;fill-opacity:1;fill-rule:evenodd;stroke:none"
         d="m 2010.74,0 c -5.88,1.26953 -11.76,2.5 -17.62,3.78906 -48.01,10.47264 -81.24,38.85934 -98.17,84.66014 -18.49,50.0628 -19.75,101.2418 -2.81,152.0118 20.11,60.211 69.16,95.269 132.53,96.59 21.61,0.429 42.76,-1.801 62.96,-9.891 38.88,-15.582 62.95,-43.91 72.17,-84.769 0.52,-2.313 0.55,-4.731 0.94,-8.43 -13.59,-1.441 -26.64,-0.602 -39.65,-0.5 -1.13,2.859 -2.21,5.019 -2.9,7.309 -9.43,31.878 -31.26,50.011 -63.18,56.621 -15.96,3.281 -32.12,3.558 -48.11,0 -30.3,-6.75 -52.17,-24.52 -66.48,-51.832 -7.59,-14.489 -12.23,-30.008 -13.94,-46.129 -3.17,-30.289 -2.57,-60.489 6.34,-90 16.23,-53.7112 64.31,-81.5081 119.02,-68.8519 27.02,6.2422 46.23,22.5508 58.25,47.0117 5.81,11.8204 9.62,24.6482 14.62,37.7812 12.06,0 24.83,0 38.59,0 -0.35,-4.062 -0.3,-7.609 -1.01,-11 C 2149.17,49.9414 2110.6,12.9688 2045.33,2.14063 2043.44,1.82813 2041.66,0.710938 2039.82,0 c -9.69,0 -19.39,0 -29.08,0" /><path
         id="path16"
         style="fill:#ee2329;fill-opacity:1;fill-rule:evenodd;stroke:none"
         d="m 1807.97,1781.29 c -0.28,-169.14 -137.2,-305.87 -306.12,-305.72 -169.35,0.14 -305.56,137.09 -306.05,305.76 -0.48,164.74 133.4,306.86 306.7,306.28 169.52,-0.57 305.75,-137.39 305.47,-306.32" /><path
         id="path18"
         style="fill:#231f20;fill-opacity:1;fill-rule:evenodd;stroke:none"
         d="m 145.586,843.648 c 2.973,-0.418 4.551,-0.828 6.125,-0.82 47.211,0.024 94.422,-0.43 141.625,0.5 13.055,0.262 26.449,3.313 38.973,7.363 27.277,8.809 44.726,27.911 52.48,55.571 6.328,22.539 6.473,45.519 3.336,68.429 -4.703,34.429 -24.832,56.169 -57.906,65.489 -12.723,3.6 -26.016,6.74 -39.121,7.1 -46.356,1.26 -92.754,1.25 -139.149,1.66 -1.898,0.02 -3.797,-0.7 -6.363,-1.2 0,-68.092 0,-135.65 0,-204.092 z M 145,722.719 c 0,-84.457 0,-167.457 0,-251.27 -48.5195,0 -95.582,0 -142.85156,0 -0.08594,0.071 -0.41797,0.281 -0.66797,0.571 -0.26953,0.281 -0.597657,0.64 -0.664064,1.011 C 0.492188,475 0,476.98 0,478.961 0.00390625,707.109 0.0390625,935.25 0.125,1163.39 c 0,1.15 0.636719,2.28 1.26563,4.41 3.68359,0.21 7.57812,0.6 11.46877,0.6 102.5626,0.03 205.1366,-0.04 307.6996,0.05 25.625,0.03 50.785,-3.12 75.187,-10.84 59.688,-18.88 101.477,-57.51 122.711,-116.4 24.332,-67.46 22.602,-134.87 -7.613,-200.339 C 478.66,771.102 422.758,733.59 347.051,724.949 c -14.395,-1.64 -28.988,-2.07 -43.492,-2.14 -48.051,-0.25 -96.102,-0.09 -144.157,-0.09 -4.324,0 -8.632,0 -14.402,0" /><path
         id="path20"
         style="fill:#231f20;fill-opacity:1;fill-rule:evenodd;stroke:none"
         d="m 1785.72,731.031 c -0.33,27.199 -4.07,57.891 -16.56,86.957 -16.9,39.34 -45.94,62.723 -89.31,65.942 -49.83,3.691 -88.11,-16.18 -108.42,-62.11 -2.11,-4.769 -4.19,-9.64 -5.68,-14.64 -14.25,-48.141 -17.24,-96.989 -5.51,-145.852 12.22,-50.949 44.89,-89.949 105.89,-93.117 35.12,-1.813 64.48,9.84 85.34,38.648 7.95,10.961 14.37,23.391 19.53,35.981 10.96,26.82 14.81,55.18 14.72,88.191 z M 1559.16,534.078 c 0,-87.906 0,-175.859 0,-263.476 -9.87,-2.93 -120.03,-3.512 -134.11,-0.821 0,238.34 0,476.84 0,715.321 8.56,2.988 111.11,3.828 127.85,0.738 0.13,-11.578 0.21,-23.551 0.42,-35.512 0.19,-11.898 -0.58,-23.867 0.47,-35.726 0.92,-0.274 1.83,-0.543 2.74,-0.801 3.06,4.508 6.13,9.027 9.19,13.539 21.03,31.019 48.03,54.691 84.52,65.332 76.28,22.228 166.88,2.816 222.3,-72.91 22.8,-31.211 36.93,-66.184 44.21,-103.891 14.26,-74.082 10.45,-147.019 -15.24,-218.32 -9.22,-25.641 -22.22,-49.313 -39.6,-70.391 -34.72,-42.109 -79.56,-64.672 -133.8,-69.18 -23.95,-1.968 -47.57,-0.789 -70.96,4.801 -37.52,8.969 -66.72,29.68 -87.72,62.02 -2.31,3.551 -4.78,7 -7.18,10.48 -1.04,-0.39 -2.06,-0.793 -3.09,-1.203" /><path
         id="path22"
         style="fill:#231f20;fill-opacity:1;fill-rule:evenodd;stroke:none"
         d="m 2262.63,719.141 c -16.41,-5.539 -32.06,-11.77 -48.23,-15.993 -16.32,-4.269 -33.22,-6.257 -49.75,-9.796 -12.98,-2.801 -26.09,-5.524 -38.56,-9.911 -33.97,-11.992 -48.66,-33.972 -47.93,-69.812 0.65,-32.309 20.47,-55.699 52.53,-58.988 42.1,-4.352 78.88,8.507 108.5,39.238 14.75,15.281 23.25,34.031 23.96,55.402 0.73,22.16 0.27,44.328 0.24,66.508 0,1.43 -0.65,2.871 -0.76,3.352 z m -173.25,102.937 c -43.18,0 -85.76,0 -129.64,0 0.89,6.813 1.24,12.762 2.48,18.543 2.92,13.367 5.44,26.938 9.61,39.949 17.54,54.879 54.16,91.668 109.45,107.032 69.91,19.418 140.49,19.708 210.2,-1.891 15.63,-4.832 30.81,-12.422 44.71,-21.109 38.94,-24.352 58.02,-60.762 59.42,-106.282 0.79,-25.832 0.21,-51.699 0.22,-77.55 0.02,-70.282 -0.23,-140.571 0.21,-210.872 0.1,-15.238 2.04,-30.558 4.34,-45.648 2.09,-13.602 8.17,-25.27 21.08,-32.301 2.02,-1.07 3.72,-4.121 4.07,-6.5 0.65,-4.308 0.19,-8.758 0.19,-14 -48.9,0 -96.8,0 -145.2,0 -8.1,17.992 -10.27,37.66 -13.22,58.492 -2.86,-1.902 -5.14,-3.082 -6.99,-4.75 -7.18,-6.531 -13.96,-13.48 -21.31,-19.8 -33.62,-28.879 -72.76,-44.02 -116.86,-47.43 -26.87,-2.07 -53.21,-0.492 -79.05,7.469 -58.99,18.101 -95.79,64.742 -99.67,126.441 -1.37,21.891 -0.29,43.649 5.31,64.949 11.84,44.961 39.26,76.981 81.05,97.059 26.24,12.609 54.41,17.391 82.83,21.531 35.93,5.262 71.81,10.93 107.72,16.442 1.99,0.289 4.03,0.488 5.97,0.988 17.12,4.539 33.06,11.519 36.26,31.121 3.52,21.59 -1.48,41.32 -20.71,54.519 -6.2,4.239 -13.52,7.418 -20.8,9.411 -24.11,6.597 -48.74,6.91 -73.21,2.531 -30.31,-5.453 -48.33,-24.172 -55.22,-53.934 -1.01,-4.308 -1.96,-8.668 -3.24,-14.41" /><path
         id="path24"
         style="fill:#231f20;fill-opacity:1;fill-rule:evenodd;stroke:none"
         d="m 3094.86,719.75 c -13.49,-5.051 -26.02,-10.672 -39.1,-14.352 -14.7,-4.109 -29.96,-6.207 -44.86,-9.636 -18.81,-4.321 -37.97,-7.762 -56.15,-14 -31.4,-10.75 -48.87,-36.852 -43.3,-76.992 3.91,-28.239 22.58,-47.098 50.95,-50.079 42.59,-4.472 79.71,8.43 109.56,39.637 13.46,14.043 22.08,31.152 23,50.774 1.13,24.148 0.78,48.359 1.01,72.527 0,0.672 -0.71,1.351 -1.11,2.121 z m 16.27,-248.281 c -4.15,19.281 -8.28,38.461 -12.72,59.203 -5.26,-5.063 -9.82,-9.442 -14.35,-13.863 -28.38,-27.758 -61.46,-47.059 -100.67,-54.739 -41.14,-8.082 -82,-8.082 -121.44,8.27 -50.88,21.082 -78.48,59.832 -85.32,114.172 -2.91,23.136 -1.59,46.019 3.64,68.566 10.28,44.281 35.96,76.981 76.28,98.012 22.82,11.89 47.34,18.16 72.68,21.922 41.5,6.179 82.99,12.488 124.42,19.117 7.07,1.121 14.18,3.41 20.7,6.402 15.66,7.258 22.53,20.219 21.65,37.219 -1.44,27.289 -14.6,44.422 -41.14,51.82 -26.08,7.282 -52.78,7.84 -79.12,1.91 -28.58,-6.449 -44.65,-25.878 -51.11,-53.859 -1,-4.312 -1.85,-8.652 -2.9,-13.609 -42.94,0 -85.56,0 -129.5,0 0.56,5.238 0.61,9.988 1.68,14.476 4.19,17.621 7.21,35.731 13.39,52.66 19.83,54.372 59.66,87.622 115.07,101.051 64.19,15.551 128.77,15.861 192.91,-1.57 19.98,-5.43 38.83,-13.68 55.98,-25.449 35.36,-24.231 54.15,-57.828 56.37,-100.641 0.38,-7.25 0.38,-14.527 0.38,-21.801 0.03,-88.449 -0.17,-176.91 0.19,-265.367 0.07,-16.062 1.71,-32.23 3.88,-48.18 1.94,-14.351 7.6,-27.152 21.18,-34.98 1.95,-1.141 3.46,-4.313 3.8,-6.742 0.6,-4.297 0.18,-8.75 0.18,-14 -48.52,0 -96,0 -146.11,0" /><path
         id="path26"
         style="fill:#231f20;fill-opacity:1;fill-rule:evenodd;stroke:none"
         d="m 1238.38,780.941 c -0.63,53.707 -36.33,111.059 -107.73,109.129 -27.76,-0.761 -52.53,-8.8 -71.51,-29.992 -19.9,-22.219 -27.77,-49.207 -30.78,-79.137 70.81,0 140.41,0 210.02,0 z m 139.26,-88.05 c -117.67,0 -234.63,0 -351.84,0 -0.65,-2.661 -1.53,-4.219 -1.29,-5.563 2.92,-15.848 4.66,-32.078 9.29,-47.418 11.88,-39.301 38.31,-63.98 79.04,-71.41 14.15,-2.59 29.04,-3.988 43.27,-2.66 35.73,3.32 63.88,19.121 78.06,54.941 45.47,0 90.92,0 137.82,0 -1.32,-4.73 -2.15,-8.519 -3.43,-12.179 -29.39,-83.411 -88.67,-131.872 -174.94,-147.391 -46.74,-8.422 -93.43,-5.25 -139.23,7.16 -68.593,18.609 -117.421,60.75 -141.734,127.668 -30.57,84.16 -33.765,169.891 -4.304,255.199 22.121,64.09 64.121,110.364 128.878,134.102 21.74,7.98 44.29,12.519 67.29,14.449 40.59,3.441 80.71,0.991 119.65,-12.129 64.8,-21.832 107.71,-66.109 131.89,-129.371 12.96,-33.879 19.4,-69.16 21.38,-105.168 1.06,-19.312 0.2,-38.711 0.2,-60.23" /><path
         id="path28"
         style="fill:#231f20;fill-opacity:1;fill-rule:evenodd;stroke:none"
         d="m 1745.74,2140.41 c 29.6,-7.4 59.38,-14.18 88.76,-22.34 44.46,-12.33 87.38,-28.82 128.09,-50.75 33.25,-17.92 64.05,-39.24 90.49,-66.43 34.41,-35.39 57.46,-76.71 65.19,-125.93 6.61,-42.02 1.01,-82.88 -12.23,-122.94 -14.36,-43.36 -36.59,-82.59 -63.44,-119.3 -44.76,-61.2 -99.28,-112.61 -159.85,-157.76 -118,-87.99 -249.3,-148.54 -390.87,-187.42 -74.95,-20.57 -151.16,-34.23 -228.75,-39.32 -33.84,-2.23 -67.75,-3.32 -101.63,-4.93 -0.08,0.86 -0.18,1.71 -0.26,2.57 12.23,1.53 24.46,3.05 36.69,4.57 144.56,17.97 285.37,50.08 418.41,111.25 60.84,27.97 117.82,62.21 168.48,106.34 51.63,44.96 93,97.58 118.95,161.37 23.37,57.45 32.52,117.29 27.93,179.11 -10.07,135.97 -71.11,243.69 -180.42,324.54 -2.19,1.62 -4.28,3.39 -6.42,5.09 0.3,0.76 0.59,1.52 0.88,2.28" /><path
         id="path30"
         style="fill:#231f20;fill-opacity:1;fill-rule:evenodd;stroke:none"
         d="m 594.285,986.68 c 42.985,0 85.145,0 128.707,0 0,-29.211 0,-57.629 0,-86.039 0.77,-0.243 1.539,-0.5 2.305,-0.762 1.754,2.351 3.695,4.551 5.234,7.019 7.707,12.332 14.735,25.09 23.063,36.961 32.621,46.43 78.629,61.791 133.308,56.161 1.571,-0.149 3.071,-0.872 5.34,-1.54 0,-44.621 0,-89.218 0,-135.179 -3.949,0 -7.808,0.129 -11.644,-0.012 -20.543,-0.75 -41.321,0.191 -61.543,-2.73 -51.047,-7.387 -82.785,-41.579 -88.34,-93.047 -1.313,-12 -1.985,-24.141 -2.004,-36.231 -0.176,-81.562 -0.09,-163.133 -0.09,-244.711 0,-4.75 0,-9.539 0,-15.121 -45.277,0 -89.418,0 -134.336,0 0,171.461 0,342.492 0,515.231" /><path
         id="path32"
         style="fill:#231f20;fill-opacity:1;fill-rule:evenodd;stroke:none"
         d="m 2773.15,997.91 c 0,-44.879 0,-89.18 0,-134.519 -4.83,0 -9.14,-0.071 -13.43,0 -23,0.32 -45.98,1.359 -68.66,-4.25 -45.84,-11.371 -73.31,-41.493 -79.32,-88.243 -1.55,-11.968 -2.33,-24.117 -2.35,-36.199 -0.19,-82.789 -0.1,-165.558 -0.1,-248.34 0,-4.75 0,-9.488 0,-14.98 -45.4,0 -89.54,0 -134.4,0 0,171.66 0,342.691 0,513.633 9.05,3.218 115.54,3.726 128.93,0.316 0,-27.969 0,-56.359 0,-84.738 0.8,-0.231 1.59,-0.449 2.39,-0.699 1.88,2.789 3.78,5.55 5.62,8.347 9.97,15.172 18.77,31.25 30.08,45.313 32.79,40.769 77.1,51.689 127.05,46.199 1.14,-0.121 2.19,-0.941 4.19,-1.84" /><path
         id="path34"
         style="fill:#231f20;fill-opacity:1;fill-rule:evenodd;stroke:none"
         d="m 2995.59,125.18 c 0.39,18.441 -2.77,36.199 -10.6,52.941 -11.34,24.16 -30.38,37.328 -57.28,37.379 -26.85,0.02 -46.5,-12.629 -57.36,-37.148 -15.52,-35 -15.52,-70.602 0.13,-105.5629 10.91,-24.3594 30.35,-36.918 57.44,-36.7891 27.17,0.1016 45.84,13.3711 57.16,37.4414 7.67,16.3281 10.79,33.7386 10.51,51.7386 z m -175.88,7.129 c -0.11,18.722 5.04,43.019 18.05,65.152 22.12,37.629 55.86,53.48 98.69,50.449 44.18,-3.121 73.41,-27.281 88.99,-67.68 15.21,-39.449 14.3,-79.25 -3.74,-117.7105 -18.64,-39.7382 -50.81,-59.62887 -94.6,-59.48825 -43.86,0.12891 -75.32,20.70705 -94.27,60.20705 -8.9,18.543 -13.08,39.4337 -13.12,69.0707" /><path
         id="path36"
         style="fill:#231f20;fill-opacity:1;fill-rule:evenodd;stroke:none"
         d="m 2778.65,177.129 c -12.19,0 -23.69,0 -35.03,0 -0.71,1.66 -1.46,2.711 -1.64,3.871 -3.3,20.898 -17.49,29.512 -36.64,32.922 -15.45,2.726 -30.6,2.348 -45.25,-3.543 -14.03,-5.609 -20.73,-15.988 -20.4,-29.809 0.24,-9.34 4.1,-16.57 12.6,-20.41 6.96,-3.148 14.27,-5.672 21.63,-7.68 15.95,-4.332 32.12,-7.929 48.06,-12.3 9.7,-2.66 19.44,-5.59 28.67,-9.508 28.2,-11.922 42.12,-30.9806 33.79,-69.7618 -6,-27.9688 -25.56,-44.4493 -51.8,-52.62895 -30.62,-9.55078 -61.58,-8.101562 -91.57,2.92965 -30.03,11.0899 -47.28,38.9883 -44.83,70.9493 11.4,0 22.87,0 35.13,0 0.76,-3.6485 1.46,-7.1602 2.24,-10.6407 3.21,-13.9179 11.09,-24.4687 24.41,-29.6093 22.23,-8.6094 45.02,-9.2305 67.43,-0.711 13.36,5.0899 21.97,14.6719 22.84,29.8906 0.62,11.3321 -3.66,20.1211 -13.98,24.5586 -10.33,4.4606 -21.12,7.9926 -31.96,10.9996 -16.32,4.532 -33.04,7.661 -49.24,12.532 -9.94,3 -19.83,7.129 -28.65,12.531 -14.43,8.84 -21.2,22.828 -21.87,39.66 -1.26,31.801 14.23,56.66 43.79,68.59 28.89,11.668 58.43,11.769 87.52,0.918 24.71,-9.199 38.85,-27.981 44.16,-53.57 0.62,-3.02 0.39,-6.219 0.59,-10.18" /><path
         id="path38"
         style="fill:#231f20;fill-opacity:1;fill-rule:evenodd;stroke:none"
         d="m 3067.73,82.3203 c 11.87,0 22.99,0 34.77,0 1.1,-4.3398 2.2,-8.5508 3.24,-12.7383 3.37,-13.5625 11.74,-23.1718 24.54,-28.0234 21.49,-8.0898 43.45,-8.5391 65.2,-0.957 12.09,4.2187 20.81,12.1367 23.74,25.2773 2.94,13.0625 -1.09,23.4414 -12.98,29.5313 -7.47,3.8398 -15.59,6.6988 -23.7,8.9298 -18.27,5 -36.76,9.269 -55.13,13.969 -5.06,1.3 -10.12,2.75 -15,4.64 -33.3,12.86 -43.44,36.332 -35.95,70.75 4.38,20.172 17,34.832 35.5,43.512 32.46,15.238 65.86,15.75 98.49,1.348 25.5,-11.231 37.61,-32.809 40.26,-61.278 -12.24,0 -23.73,0 -35.87,0 -0.46,1.258 -1.22,2.641 -1.45,4.141 -2.58,16.769 -12.85,26.398 -28.67,30.699 -17.56,4.75 -35.14,5.199 -52.37,-1.43 -14.54,-5.582 -21.88,-16.511 -21.31,-30.461 0.36,-8.781 4.02,-15.851 11.95,-19.609 6.87,-3.301 14.16,-5.91 21.51,-7.91 19.07,-5.18 38.48,-9.242 57.37,-14.961 11.47,-3.469 22.82,-8.23 33.23,-14.129 13.74,-7.832 20.97,-20.09 21.88,-36.6601 2.21,-40.7695 -16.37,-68.3593 -55.65,-79.51168 -29.19,-8.320314 -58.49,-6.871095 -86.97,3.07028 -31.12,10.9024 -47.69,36.6914 -46.63,71.8008" /><path
         id="path40"
         style="fill:#231f20;fill-opacity:1;fill-rule:evenodd;stroke:none"
         d="m 2362.66,241.191 c 13.66,0 25.24,0 37.53,0 0,-77.121 0,-153.6012 0,-231.81209 -5.84,0 -11.35,0 -16.87,0 -5.57,0 -11.13,0 -17.85,0 0,11.10939 0,21.04299 0,33.69139 -3.74,-3.5312 -5.76,-4.9805 -7.22,-6.8906 -25.89,-33.85157 -71.5,-44.16798 -109.5,-24.6406 -20.82,10.7226 -31.33,28.3906 -33.96,51.1523 -0.63,5.5899 -0.5,11.2695 -0.5,16.9297 -0.05,49.2579 -0.04,98.5199 -0.04,147.7769 0,4.332 0,8.672 0,13.723 12.91,0 24.47,0 37.62,0 0.21,-4.09 0.62,-8.32 0.62,-12.543 0.05,-46.43 -0.11,-92.859 0.17,-139.2889 0.06,-8.3985 0.84,-17.0508 3.05,-25.0899 4.7,-16.9492 16.71,-26.2187 34.09,-28.1679 33.02,-3.6407 57.89,12.1289 67.52,44.0078 3.33,11.0507 4.9,22.9609 5.11,34.4999 0.63,37.551 0.23,75.109 0.23,112.66 0,4.332 0,8.68 0,13.992" /><path
         id="path42"
         style="fill:#231f20;fill-opacity:1;fill-rule:evenodd;stroke:none"
         d="m 2467.37,241.262 c 11.49,0 22.24,0 34.37,0 0,-11.66 0,-23.141 0,-34.621 0.81,-0.332 1.63,-0.672 2.43,-1.02 1.85,2.117 3.93,4.051 5.49,6.32 7.62,11.098 16.25,21.2 28.12,27.899 12.59,7.129 25.91,10.609 41.01,7.039 0,-12.918 0,-25.238 0,-38.848 -4.6,-0.293 -8.89,-0.832 -13.17,-0.781 -39.85,0.449 -60.9,-31.648 -60.86,-61.57 0.04,-40.352 -0.01,-80.7386 -0.02,-121.098 0,-4.3711 0,-8.7617 0,-13.8007 -12.71,-2.51958 -24.59,-1.10161 -37.37,-1.17192 0,77.26172 0,153.74262 0,231.65262" /></g></g></svg>